<svg width="503" height="320" viewBox="0 0 503 320" fill="none" xmlns="http://www.w3.org/2000/svg">
<mask id="path-1-inside-1_42_15" fill="white">
<rect x="0.978271" y="0.253906" width="319.492" height="319.492" rx="8"/>
</mask>
<rect x="0.978271" y="0.253906" width="319.492" height="319.492" rx="8" stroke="white" stroke-width="50" mask="url(#path-1-inside-1_42_15)"/>
<mask id="path-2-inside-2_42_15" fill="white">
<rect x="61.3522" y="170.218" width="198.744" height="102.237" rx="8"/>
</mask>
<rect x="61.3522" y="170.218" width="198.744" height="102.237" rx="8" stroke="white" stroke-width="50" mask="url(#path-2-inside-2_42_15)"/>
<mask id="path-3-inside-3_42_15" fill="white">
<rect x="61.3522" y="50.708" width="71.3313" height="70.3012" rx="4"/>
</mask>
<rect x="61.3522" y="50.708" width="71.3313" height="70.3012" rx="4" stroke="white" stroke-width="46" mask="url(#path-3-inside-3_42_15)"/>
<mask id="path-4-inside-4_42_15" fill="white">
<rect x="188.765" y="50.708" width="71.3313" height="70.3012" rx="4"/>
</mask>
<rect x="188.765" y="50.708" width="71.3313" height="70.3012" rx="4" stroke="white" stroke-width="46" mask="url(#path-4-inside-4_42_15)"/>
<rect x="198.692" y="208.557" width="25.9339" height="25.5594" rx="2" fill="white"/>
<rect x="96.8229" y="208.557" width="25.9339" height="25.5594" rx="2" fill="white"/>
<path d="M501.861 156.076C506.742 151.195 506.742 143.28 501.861 138.398C496.979 133.517 489.064 133.517 484.183 138.398L501.861 156.076ZM420.159 214.443L428.998 205.604L420.159 214.443ZM425.816 214.443L434.655 223.282L425.816 214.443ZM380.919 180.859L372.08 172.02L380.919 180.859ZM386.576 180.859L395.414 172.02L386.576 180.859ZM320.099 259.356L389.758 189.698L372.08 172.02L302.422 241.678L320.099 259.356ZM377.737 189.698L411.32 223.282L428.998 205.604L395.414 172.02L377.737 189.698ZM434.655 223.282L501.861 156.076L484.183 138.398L416.977 205.604L434.655 223.282ZM411.32 223.282C417.764 229.725 428.211 229.725 434.655 223.282L416.977 205.604C420.297 202.285 425.679 202.285 428.998 205.604L411.32 223.282ZM389.758 189.698C386.438 193.017 381.056 193.017 377.737 189.698L395.414 172.02C388.971 165.577 378.524 165.577 372.08 172.02L389.758 189.698Z" fill="white"/>
</svg>
